<?xml version="1.0" encoding="UTF-8"?>
<svg id="Layer_2" data-name="Layer 2" xmlns="http://www.w3.org/2000/svg" xmlns:xlink="http://www.w3.org/1999/xlink" viewBox="0 0 709.61 408.18">
  <defs>
    <style>
      .cls-1 {
        fill: url(#linear-gradient);
      }
    </style>
    <linearGradient id="linear-gradient" x1="-70.94" y1="317.7" x2="717.96" y2="317.71" gradientTransform="translate(-8.36 521.8) scale(1 -1)" gradientUnits="userSpaceOnUse">
      <stop offset="0" stop-color="#bda03d"/>
      <stop offset=".28" stop-color="#dfa556"/>
      <stop offset=".51" stop-color="#f9d567"/>
      <stop offset=".74" stop-color="#c9a050"/>
      <stop offset="1" stop-color="#ebb333"/>
    </linearGradient>
  </defs>
  <g id="Layer_1-2" data-name="Layer 1">
    <path class="cls-1" d="M702.55,193.2h1.46v21.77h-1.46v-21.77ZM708.18,189.12h1.43v29.94h-1.43v6.52h-1.23v2.65h-1.46v-4.02h-1.42v-40.23h1.42v-4.02h1.46v2.65h1.23v6.52h0ZM694.55,189.91h1.45v28.38h-1.45v-28.38ZM686.57,189.68h1.45v-13.04h1.46v10.6h1.42v2.99h1.22v-5.19h1.45v47.38h-1.45v-14.47h-1.22v2.99h-1.42v10.6h-1.46v-13.04h-1.45v-28.83h0ZM700.15,175.21h1.45v57.77h-1.45v-18.35h-1.22v19.89h-1.45v-4.19h-1.42v-52.47h1.42v-4.19h1.45v19.89h1.22v-18.35ZM676.2,189.91h1.45v28.38h-1.45v-28.38ZM668.22,189.68h1.45v-7.54h1.45v.88h1.22v-.43h1.43v-2.19h1.45v47.38h-1.45v-2.19h-1.43v-.43h-1.22v.88h-1.45v-7.54h-1.45v-28.83h0ZM681.79,175.21h1.45v57.77h-1.45v-6.07h-1.22v3.42h-2.87v-52.47h2.87v3.42h1.22v-6.07ZM665.98,187.47h1.45v33.24h-1.45v-1.06h-1.42v-2.68h-1.25v-4.67h-1.42v-16.41h1.42v-4.67h1.25v-2.68h1.42v-1.06ZM621.48,176.32h-1.45v3.53h-1.23v-3.9h-1.45v8.75h-1.23v1.25h-1.43v36.29h1.43v1.25h1.23v8.75h1.45v-3.9h1.23v3.53h1.45v-55.55ZM629.63,177.96h-1.46v3.9h-1.45v1.96h-1.22v-8.29h-1.45v4.5h-1.42v48.12h1.42v4.48h1.45v-8.28h1.22v1.96h1.45v3.9h1.46v-52.25ZM637.48,185.87h-1.45v4.64h-1.39v-6.83h-1.45v1.93h-1.22v-4.44h-1.45v45.84h1.45v-4.44h1.22v1.93h1.45v-6.83h1.39v4.64h1.45v-36.44h0ZM645.29,189.91h-1.46v28.38h1.46v-28.38ZM653.26,189.68h-1.45v-7.54h-1.45v.88h-1.22v-.43h-1.42v-2.19h-1.45v47.38h1.45v-2.19h1.42v-.43h1.22v.88h1.45v-7.54h1.45v-28.83h0ZM600.54,157.12h-1.45v93.95h1.45v-3.36h1.25v4.04h1.25v3.99h1.45v-103.29h-1.45v3.99h-1.25v4.04h-1.25v-3.36ZM608.26,164.91h-1.28v78.36h1.28v4.44h1.45v-3.64h1.42v-6.83h1.25v-66.31h-1.25v-6.83h-1.42v-3.64h-1.45v4.44h0ZM639.68,175.21h-1.45v57.77h1.45v-18.35h1.22v15.7h2.88v-52.47h-2.88v15.7h-1.22v-18.35ZM655.49,187.47h-1.45v33.24h1.45v-1.06h1.42v-2.68h1.25v-4.67h1.42v-16.41h-1.42v-4.67h-1.25v-2.68h-1.42v-1.06ZM589.98,169.78h-1.28v68.62h1.28v41.19h2.87v-3.08h1.25v-144.83h-1.25v-3.08h-1.45v3.08h-1.42v38.11h0ZM582.39,133.14h-1.28v141.91h1.28v22.24h2.87v-3.81h1.25V114.71h-1.25v-3.81h-1.45v3.81h-1.42v18.43h0ZM569.92,14.15h1.45v379.89h-1.45v-50.96h-1.28v-12.27h-1.42v-27.29h-1.25V70.84h1.45v6.55h1.22v-7.37h1.28V14.15ZM562.85,79.28h1.26v249.62h-1.45v-18.03h-1.25v28.92h-1.45v-36.27h-1.23V104.66h1.23v-36.26h1.43v-19.79h1.45v30.66h0ZM554.54,41.11h1.46v266.91h-1.46v-18.06h-1.25v24.69h-1.23v42.72h-1.46V50.82h1.46v42.72h1.23v30.03h1.25V41.11h0ZM575.45,34.19h-1.45v339.78h1.45v-13.76h1.28v-24.12h1.22v17.75h1.45V54.33h-1.45v17.75h-1.22v-17.75h-1.28v-20.14ZM548.53,175.71h1.45v57.28h-1.45v-7.54h-1.25v21.28h-1.45v-10.4h-1.25v-63.98h1.25v-10.39h1.45v22.57h1.25v-8.83h0ZM540.95,162.48h1.45v83.74h-1.45v-12.88h-1.23v30.06h-1.46v-15.12h-1.25v-87.86h1.25v-15.12h1.46v31.87h1.23v-14.68h0ZM533.08,171.75h1.26v65.18h-1.26v35.83h-1.46v-37.71h-1.22v26.46h-1.45v-114.32h1.45v26.46h1.22v-35.9h1.46v34.01ZM525.37,158.56h1.28v91.56h-1.28v36.21h-1.43v-25.52h-1.43v-2.06h-1.25v-108.82h1.25v-2.06h1.43v-23.7h1.43v34.39ZM466.25,145.6h1.45v15.84h1.46v1.56h1.23v-16.3h1.45v114.79h-1.45v-13.98h-1.26v-.77h-1.43v18.17h-1.45v-119.3h0ZM518.15,149.93h1.26v108.31h-1.26v24.81h-1.46v-7.66h-1.42v-30.16h-1.25v-82.3h1.25v-30.16h1.42v-5.96h1.46v23.11ZM510.39,150.24h1.45v107.7h-1.45v-16.57h-1.25v38.66h-1.45v-5.96h-1.25v-139.96h1.25v-5.96h1.45v40.99h1.25v-18.89ZM502.5,162.17h1.28v83.84h-1.28v46.07h-1.45v-22.88h-1.22v8.4h-1.45v-147.02h1.45v8.4h1.22v-20.56h1.45v43.75ZM494.81,125.71h1.28v156.76h-1.28v27.06h-1.45v-32.81h-1.22v15.69h-1.45V115.77h1.45v15.69h1.22v-30.48h1.45v24.73ZM486.63,115.77h1.46v176.64h-1.46v-5.41h-1.26v-5.86h-1.23v47.28h-1.45V79.76h1.45v47.28h1.23v-3.53h1.26v-7.74ZM479.07,60.98h1.28v286.22h-1.28v7.18h-1.45v-77.88h-1.42v-30.76h-1.25v-83.29h1.25v-30.77h1.42V56.12h1.45v4.85ZM458.9,100.39h-1.28v207.4h1.28v32.5h2.87v-5.56h1.25V73.46h-1.25v-5.56h-1.45v5.56h-1.42v26.94ZM451.28,85.21h-1.26v237.74h1.26v37.26h2.88v-6.36h1.25V54.33h-1.25v-6.36h-1.45v6.36h-1.43v30.88ZM438.82,14.15h1.45v379.89h-1.45v-50.96h-1.26v-12.27h-1.43v-27.29h-1.25V70.84h1.46v6.55h1.22v-7.37h1.26V14.15h0ZM431.74,79.28h1.28v249.62h-1.45v-18.03h-1.25v28.92h-1.45v-36.27h-1.25V104.66h1.25v-36.26h1.42v-19.79h1.45v30.66ZM423.45,41.11h1.45v266.91h-1.45v-18.06h-1.25v24.69h-1.25v42.72h-1.45V50.82h1.45v42.72h1.25v30.03h1.25V41.11ZM444.36,34.19h-1.45v339.78h1.45v-13.76h1.26v-24.12h1.23v17.75h1.45V54.33h-1.45v17.75h-1.23v-17.75h-1.26v-20.14ZM364.53,145.6h1.45v15.84h1.45v1.56h1.25v-16.3h1.45v114.79h-1.45v-13.98h-1.28v-.77h-1.42v18.17h-1.45v-119.3h0ZM416.24,167.25h1.45v73.67h-1.45v-9.69h-1.25v27.37h-1.45v-13.36h-1.25v-82.3h1.25v-13.36h1.45v29.05h1.25v-11.37ZM408.68,150.24h1.43v107.7h-1.43v-16.57h-1.25v38.66h-1.46v-19.45h-1.23v-113h1.23v-19.45h1.46v40.99h1.25v-18.89ZM400.79,162.17h1.26v83.84h-1.26v46.07h-1.46v-48.51h-1.2v34.02h-1.46v-147.02h1.46v34.02h1.2v-46.18h1.46v43.75h0ZM393.1,145.22h1.26v117.75h-1.26v46.57h-1.45v-32.81h-1.43v-2.65h-1.25v-139.96h1.25v-2.65h1.43v-30.48h1.45v44.24ZM384.91,115.77h1.45v176.64h-1.45v-5.41h-1.28v-5.86h-1.22v47.28h-1.45V79.76h1.45v47.28h1.22v-3.53h1.28v-7.74ZM377.16,130.86h1.45v146.47h-1.45v-17.01h-1.25v2.65h-1.45v-17.23h-1.25v-83.29h1.25v-17.23h1.45v4.96h1.25v-19.32h0ZM357.65,133.99h-1.28v140.21h1.28v21.97h2.87v-3.76h1.25V115.77h-1.25v-3.74h-1.45v3.74h-1.42v18.21ZM350.04,123.72h-1.26v160.74h1.26v25.18h2.88v-4.31h1.25V102.86h-1.25v-4.31h-1.45v4.31h-1.43v20.86ZM287.79,128.92h-1.45v146.14h1.45v-10.25h1.25v16.44h1.45v-20.63h1.25v-113.06h-1.25v-9.37h-1.45v7.98h-1.25v-17.26ZM294.69,123.95h-1.45v160.27h1.45v-29.23h1.25v45.32h1.45v-19.06h1.25V126.93h-1.25v-19.06h-1.45v21.17h-1.25v-5.09ZM310.58,100.75h-1.45v173.17h1.45v-9.11h1.25v16.44h1.45v-24.44h1.25V122.83h-1.25v-11.08h-1.45v34.43h-1.25v-45.43h0ZM303.14,126.93h-1.28v154.33h1.28v.48h1.45v-12.1h1.22v11.62h1.45V126.93h-1.45v11.62h-1.22v-36.26h-1.45v24.64h0ZM337.58,75.68h1.46v256.83h-1.46v-34.45h-1.26v-8.29h-1.42v-18.44h-1.26V114h1.46v4.42h1.22v-4.96h1.26v-37.78ZM330.5,119.72h1.28v168.75h-1.45v-12.19h-1.25v19.56h-1.45v-24.52h-1.25v-134.43h1.25v-24.53h1.42v-13.36h1.45v20.73ZM322.21,93.9h1.45v180.45h-1.45v-12.2h-1.25v16.69h-1.25v13.24h-1.45V116.11h1.45v13.24h1.25v20.31h1.25v-55.75ZM343.12,89.24h-1.45v229.71h1.45v-9.31h1.26v-16.3h1.23v11.99h1.45V102.86h-1.45v11.99h-1.23v-11.99h-1.26v-13.62ZM282.07,128.92h1.45v146.14h-1.45v-10.25h-1.25v16.44h-1.45v-20.63h-1.25v-113.06h1.25v-9.37h1.45v7.98h1.25v-17.26h0ZM275.17,90.81h1.45v226.57h-1.45v-62.38h-1.25v45.32h-1.45v-19.06h-1.25V126.93h1.25v-19.06h1.45v21.17h1.25v-38.23h0ZM259.28,128.92h1.45v146.14h-1.45v-10.25h-1.25v16.44h-1.45v-20.63h-1.25v-113.06h1.25v-9.37h1.45v7.98h1.25v-17.26h0ZM266.57,126.93h1.43v154.33h-1.43v-26.26h-1.26v14.64h-1.25v11.62h-1.45V126.93h1.45v11.62h1.23v-9.51h1.28v-2.11h0ZM232.28,75.68h-1.45v256.83h1.45v-34.45h1.28v-8.29h1.42v-18.44h1.25v-134.43h-1.25v-18.46h-1.42v-4.96h-1.28v-37.78ZM239.53,119.72h-1.45v168.75h1.45v-12.19h1.25v19.56h1.45v-24.52h1.25v-134.43h-1.25v-24.53h-1.45v22.88h-1.25v-15.52h0ZM247.65,133.82h-1.45v140.53h1.45v-12.2h1.25v16.69h1.25v13.24h1.45V116.11h-1.45v13.24h-1.25v20.31h-1.25v-15.84ZM226.75,89.24h1.45v229.71h-1.45v-9.31h-1.28v-16.3h-1.23v11.99h-1.43V102.86h1.43v11.99h1.23v-11.99h1.28v-13.62ZM219.83,22.76h1.46v362.66h-1.46v-71.89h-1.23v31.45h-1.25v56.78h-1.45V6.41h1.45v56.78h1.25v38.26h1.23V22.76h0ZM211.4,16.38h1.45v375.42h-1.45v-27.12h-1.25v43.5h-1.45v-12.16h-1.25V12.16h1.25V0h1.45v50.9h1.25V16.38ZM203.28,75.68h1.45v256.83h-1.45v-34.45h-1.28v-8.29h-1.42v-18.44h-1.25v-134.43h1.25v-18.46h1.42v-4.96h1.28v-37.78ZM196.02,119.72h1.45v168.75h-1.45v-12.19h-1.25v19.56h-1.45v-24.52h-1.25v-134.43h1.25v-24.53h1.45v22.88h1.25v-15.52h0ZM187.9,171.23h1.45v65.72h-1.45v-5.72h-1.25v7.81h-1.25v6.2h-1.45v-82.3h1.45v6.19h1.25v9.49h1.25v-7.4ZM180.34,158.96h1.45v90.25h-1.45v-7.84h-1.25v10.71h-1.25v8.51h-1.45v-113h1.45v8.51h1.25v13.04h1.25v-10.17h0ZM172.45,162.17h1.28v83.84h-1.28v4.42h-1.45v-6.86h-1.42v-10.82h-1.25v-57.34h1.25v-10.82h1.42v-4.53h1.45v2.1ZM164.59,145.22h1.45v117.75h-1.45v-8.51h-1.25v13.65h-1.45v-35.35h-1.25v-57.34h1.25v-35.35h1.45v15.96h1.25v-10.82ZM156.76,143.66h1.28v120.86h-1.28v5.86h-1.45v-16.35h-1.23v17.89h-1.43v-135.65h1.43v17.89h1.23v-14.02h1.45v3.53ZM148.84,130.86h1.45v146.47h-1.45v-17.01h-1.25v2.65h-1.45v-17.23h-1.25v-83.29h1.25v-17.23h1.45v4.96h1.25v-19.32ZM140.33,160.69h1.45v86.82h-2.71v-.77h-1.43v-13.38h-1.23v-58.54h1.23v-13.38h1.45v1.56h1.25v-2.31ZM133.15,163.93h1.45v80.33h-1.45v-8.2h-1.25v18.29h-1.45v-5.52h-1.25v-89.48h1.25v-5.52h1.45v18.29h1.25v-8.2ZM125.29,257.66h1.45v-107.14h-1.45v5.75h-1.25v-14.25h-1.25v-9.28h-1.45v142.71h1.45v-9.28h1.25v-14.25h1.25v5.75ZM117.64,266.17h1.45v-124.15h-1.45v2.2h-1.28v15.35h-1.42v5.87h-1.25v77.31h1.25v5.87h1.42v15.35h1.28v2.2h0ZM109.51,137.04h1.45v134.11h-1.45v-13.7h-1.25v4.3h-1.25v17.01h-1.45v-149.33h1.45v17.01h1.25v4.3h1.25v-13.7ZM101.52,123.46h1.45v161.26h-1.45v-5.52h-1.25v3.87h-1.45v-35.46h-1.25v-87.05h1.25v-35.46h1.45v3.87h1.25v-5.52h0ZM93.5,94.85h1.45v218.49h-1.45v-7.8h-1.28v-4.02h-1.42v-18.12h-1.25V124.79h1.25v-18.12h1.42v-4.02h1.28v-7.8h0ZM85.78,94.85h1.45v218.49h-1.45v-7.8h-1.26v-20.69h-1.43v-55.67h-1.23v-50.16h1.23v-55.68h1.43v-20.69h1.26v-7.8h0ZM78.19,181.29h1.45v45.61h-1.45v-1.63h-1.25v1.96h-1.25v1.94h-1.45v-50.16h1.45v1.94h1.25v1.96h1.25v-1.62h0ZM70.48,185.07h1.26v38.05h-1.26v2.16h-1.45v-1.77h-1.43v-3.31h-1.23v-32.19h1.23v-3.31h1.43v-1.77h1.45v2.16ZM62.62,195.28h1.42v17.61h-1.42v.6h-1.25v4.25h-1.45v-6.95h-1.42v-13.42h1.42v-6.95h1.45v4.25h1.25v.6ZM54.64,192.42h1.45v23.35h-1.45v-3.91h-1.42v-1.16h-1.22v4.19h-1.45v-21.59h1.45v4.19h1.22v-1.16h1.42v-3.91ZM46.75,192.96h1.45v22.27h-1.45v-2.16h-1.22v.94h-1.45v-3.31h-1.42v-13.21h1.42v-3.31h1.45v.94h1.22v-2.16ZM39.05,191.31h1.45v25.56h-1.45v-8.12h-1.22v2.16h-1.45v-2.48h-1.42v-8.68h1.42v-2.48h1.45v2.16h1.22v-8.12ZM31.02,198.1h1.43v11.97h-1.43v-.55h-1.43v-.11h-1.22v.22h-1.45v-11.08h1.45v.22h1.22v-.11h1.43v-.56h0ZM23.24,197.21h1.45v13.75h-1.45v-.43h-1.42v-1.11h-1.25v-1.93h-1.42v-6.8h1.42v-1.93h1.25v-1.11h1.42v-.45ZM15.3,198.71h1.45v10.77h-1.45v-.94h-1.23v.88h-1.45v-.77h-1.42v-9.11h1.42v-.77h1.45v.88h1.23v-.94h0ZM7.55,195.84h1.45v16.5h-1.45v-1.88h-2.67v-1.26h-1.42v-10.22h1.42v-1.26h2.67v-1.88h0ZM0,196.89h.88v14.41h-.88v-14.41Z"/>
  </g>
</svg>